<svg width="385" height="304" viewBox="0 0 385 304" fill="none" xmlns="http://www.w3.org/2000/svg">
    <path d="M330.247 199.557L384.394 291.904L277.347 292.623L330.247 199.557Z" fill="#383838"/>
    <path d="M93.0036 301.559H129.76M202.159 301.559H163.175M163.175 301.559V261.461V239.185C163.547 236.586 162.507 231.388 155.378 231.388C148.25 231.388 140.527 231.388 137.557 231.388C134.958 231.388 129.76 232.947 129.76 239.185V301.559M163.175 301.559H129.76M12.8075 239.185V93.272C12.065 90.3018 12.8075 84.3613 21.7182 84.3613L274.559 86.589C277.529 87.7028 283.024 91.4899 281.242 97.7274V239.185C281.613 241.783 280.796 246.981 274.559 246.981H21.7182C18.748 246.981 12.8075 245.422 12.8075 239.185Z" stroke="#383838" stroke-width="4"/>
    <path d="M240.59 278.157C240.59 299.477 242.042 301.591 254.65 301.591H299.175C309.756 301.591 308.548 295.108 308.548 278.157V186.765C308.548 175.517 302.299 171.143 299.175 170.361H254.65C242.916 170.361 240.59 181.087 240.59 186.765V278.157Z" fill="white" stroke="#383838" stroke-width="4" stroke-linecap="round"/>
    <rect x="42.71" y="73.8447" width="6.12333" height="334.046" transform="rotate(-69.0072 42.71 73.8447)" fill="#383838"/>
    <rect y="31.8613" width="31.4424" height="170.34" transform="rotate(-90 0 31.8613)" fill="#383838"/>
</svg>
