<svg width="339" height="364" viewBox="0 0 339 364" fill="none" xmlns="http://www.w3.org/2000/svg">
    <path d="M208.655 136.826L269.643 50.963L313.508 146.711L208.655 136.826Z" fill="#383838" stroke="#383838"/>
    <rect x="0.75293" y="4.09668" width="26.3894" height="358.457" fill="#383838" stroke="#383838"/>
    <path d="M65.7128 250.433C38.3137 242.917 -8.26472 214.814 24.6142 162.528C32.908 152.253 57.1965 134.787 88 147.116C90.816 120.156 111.007 66.2346 169.242 66.2346C190.894 65.1146 238.564 74.8576 256.035 122.79C273.767 115.697 314.27 114.95 334.428 168.706C340.774 187.727 339.916 230.702 285.712 250.433" stroke="#383838" stroke-width="3" stroke-linecap="round"/>
    <path d="M153.543 288.26C153.88 286.921 153.068 285.562 151.729 285.225L129.91 279.734C128.571 279.397 127.212 280.209 126.875 281.548C126.538 282.887 127.35 284.246 128.689 284.583L148.084 289.464L143.203 308.859C142.866 310.198 143.678 311.557 145.017 311.894C146.356 312.231 147.715 311.418 148.052 310.079L153.543 288.26ZM91.2812 274.31L89.2013 275.698L89.2336 275.746L89.2682 275.793L91.2812 274.31ZM112 207.993L111.037 205.685L110.969 205.714L110.902 205.747L112 207.993ZM173.225 243.057L175.699 242.698L175.681 242.573L175.65 242.451L173.225 243.057ZM221.629 295.273L221.499 297.769L221.564 297.773H221.629V295.273ZM263.935 249.155H266.435H263.935ZM218.58 204.944L218.643 202.444L218.552 202.442L218.461 202.446L218.58 204.944ZM190.942 212.659C190.782 214.03 191.765 215.271 193.136 215.431L215.486 218.03C216.857 218.189 218.098 217.207 218.258 215.835C218.417 214.464 217.435 213.222 216.063 213.063L196.197 210.753L198.507 190.887C198.667 189.515 197.684 188.274 196.313 188.115C194.941 187.955 193.7 188.938 193.541 190.309L190.942 212.659ZM149.836 285.504C144.36 288.778 134.918 292.076 124.516 291.313C114.231 290.558 102.871 285.831 93.2942 272.828L89.2682 275.793C99.7349 290.005 112.449 295.441 124.15 296.299C135.735 297.149 146.19 293.509 152.402 289.796L149.836 285.504ZM93.361 272.923C87.8838 264.711 84.1215 253.262 86.0099 241.854C87.874 230.592 95.3155 218.935 113.098 210.238L110.902 205.747C91.9005 215.04 83.2451 227.939 81.077 241.037C78.9332 253.989 83.2035 266.705 89.2013 275.698L93.361 272.923ZM112.963 210.3C120.483 207.162 132.398 205.094 143.622 208.947C154.656 212.734 165.484 222.4 170.799 243.664L175.65 242.451C169.989 219.807 158.122 208.638 145.246 204.218C132.561 199.864 119.351 202.217 111.037 205.685L112.963 210.3ZM170.751 243.417C172.093 252.652 174.025 265.696 181.009 276.676C188.123 287.86 200.307 296.662 221.499 297.769L221.759 292.776C202.093 291.749 191.426 283.737 185.228 273.992C178.899 264.044 177.058 252.048 175.699 242.698L170.751 243.417ZM221.629 297.773C229.862 297.773 241.011 294.253 250.123 286.463C259.321 278.6 266.435 266.388 266.435 249.155H261.435C261.435 264.853 255.018 275.7 246.874 282.663C238.644 289.699 228.64 292.773 221.629 292.773V297.773ZM266.435 249.155C266.435 241.548 264.053 230.172 256.87 220.517C249.602 210.749 237.543 202.921 218.643 202.444L218.517 207.443C235.901 207.881 246.519 214.981 252.858 223.501C259.281 232.134 261.435 242.406 261.435 249.155H266.435ZM218.461 202.446C215.625 202.582 210.991 203.16 206.106 204.452C201.254 205.735 195.921 207.783 191.873 210.987L194.977 214.908C198.247 212.319 202.823 210.492 207.385 209.285C211.915 208.087 216.199 207.56 218.699 207.441L218.461 202.446Z" fill="#383838"/>
    <rect x="106.745" y="1.95187" width="5.20801" height="363.736" transform="rotate(-9.67124 106.745 1.95187)" fill="#383838" stroke="#383838"/>
</svg>
