<svg width="322" height="366" viewBox="0 0 322 366" fill="none" xmlns="http://www.w3.org/2000/svg">
    <rect x="7.80802" y="45.3538" width="357.941" height="14.2051" transform="rotate(28.932 7.80802 45.3538)" fill="black" stroke="#383838"/>
    <rect x="293.498" y="4.4496" width="14.7761" height="213.873" transform="rotate(33.841 293.498 4.4496)" fill="black" stroke="#383838"/>
    <rect x="301.059" y="136.223" width="5.1507" height="271.623" transform="rotate(33.841 301.059 136.223)" fill="black" stroke="#383838"/>
    <path d="M195 83.5811C195 38.5698 158.511 2.08105 113.5 2.08105C68.4888 2.08105 32 38.5698 32 83.5811" stroke="#383838" stroke-width="3"/>
    <path d="M150.221 175.207C150.582 168.251 151.977 165.708 155.053 159.459C158.13 153.211 162.445 147.654 167.737 143.126" stroke="#383838" stroke-width="3"/>
    <path d="M77.9515 174.649C77.5908 167.694 76.089 164.153 73.0129 157.905C69.9368 151.657 65.6213 147.654 60.3291 143.126" stroke="black" stroke-width="3"/>
    <path d="M77.9512 174.5C78.1259 176.769 78.6164 178.704 83.4824 179.028" stroke="black" stroke-width="3"/>
    <path d="M150.275 174.483C150.101 176.753 149.61 178.687 144.744 179.012" stroke="#383838" stroke-width="3"/>
    <path d="M32.0778 82.9341C31.4851 96.4502 34.9454 127.07 60.5546 143.289" stroke="black" stroke-width="3"/>
    <path d="M194.943 82.9341C195.536 96.4502 193.115 127.077 167.506 143.296" stroke="#383838" stroke-width="3"/>
    <rect x="85.1504" y="179.758" width="57.6123" height="44.7319" rx="2.5" stroke="#383838" stroke-width="3"/>
    <rect x="99.0088" y="224.521" width="32.8677" height="12.7896" rx="2.5" stroke="#383838" stroke-width="3"/>
    <path d="M125.796 195.341C126.624 195.341 127.296 194.67 127.296 193.841C127.296 193.013 126.624 192.341 125.796 192.341V195.341ZM85.8047 195.341H125.796V192.341H85.8047V195.341Z" fill="#383838"/>
    <path d="M101.504 208.245H141.495" stroke="#383838" stroke-width="3" stroke-linecap="round"/>
</svg>
