<svg width="45" height="37" viewBox="0 0 45 37" fill="none" xmlns="http://www.w3.org/2000/svg">
<g clip-path="url(#clip0_515_2097)">
<path d="M14.6853 17.357C16.4336 18.119 17.7972 19.2619 18.7762 20.7859C19.7552 22.3098 20.2448 24.1107 20.2448 26.1888C20.2448 29.1674 19.3007 31.5745 17.4126 33.4101C15.5245 35.2457 13.1119 36.1635 10.1748 36.1635C7.23775 36.1635 4.8077 35.2284 2.88462 33.3581C0.961529 31.4879 0 29.0981 0 26.1888C0 24.8034 0.174823 23.4181 0.524476 22.0327C0.874128 20.6473 1.64335 18.5693 2.83217 15.7985L8.91608 0.836426H19.3007L14.6853 17.357ZM39.4406 17.357C41.1888 18.119 42.5524 19.2619 43.5315 20.7859C44.5105 22.3098 45 24.1107 45 26.1888C45 29.1674 44.056 31.5745 42.1678 33.4101C40.2797 35.2457 37.8671 36.1635 34.9301 36.1635C31.993 36.1635 29.5629 35.2284 27.6399 33.3581C25.7168 31.4879 24.7552 29.0981 24.7552 26.1888C24.7552 24.8034 24.9301 23.4181 25.2797 22.0327C25.6294 20.6473 26.3986 18.5693 27.5874 15.7985L33.6713 0.836426H44.0559L39.4406 17.357Z" fill="#C4C4C4"/>
</g>
<defs>
<clipPath id="clip0_515_2097">
<rect width="45" height="35.3271" fill="white" transform="translate(0 0.836426)"/>
</clipPath>
</defs>
</svg>
