<svg width="1104" height="145" viewBox="0 0 1104 145" fill="none" xmlns="http://www.w3.org/2000/svg">
    <path d="M964.389 142.625L1029.07 2.00928H1039.32L1104 142.625H1092.95L1031.88 8.43741H1036.3L975.438 142.625H964.389ZM988.093 103.051L991.508 94.4137H1075.68L1079.09 103.051H988.093Z" fill="black"/>
    <path d="M862.554 66.6923H938.688V75.7319H862.554V66.6923ZM863.76 133.384H950.54V142.625H853.515V2.00928H947.526V11.2497H863.76V133.384Z" fill="black"/>
    <path d="M687.554 142.625V2.00928H743.198C758.063 2.00928 771.12 5.02246 782.369 11.0488C793.618 17.0752 802.323 25.3782 808.483 35.9578C814.778 46.5375 817.925 58.6572 817.925 72.317C817.925 85.9767 814.778 98.0964 808.483 108.676C802.323 119.256 793.618 127.559 782.369 133.585C771.12 139.611 758.063 142.625 743.198 142.625H687.554ZM697.799 133.384H742.394C755.652 133.384 767.169 130.773 776.945 125.55C786.721 120.327 794.288 113.162 799.645 104.056C805.001 94.8154 807.68 84.2358 807.68 72.317C807.68 60.3981 805.001 49.8855 799.645 40.7789C794.288 31.5385 786.721 24.3069 776.945 19.084C767.169 13.8611 755.652 11.2497 742.394 11.2497H697.799V133.384Z" fill="black"/>
    <path d="M628.31 142.625V2.00928H638.555V142.625H628.31Z" fill="black"/>
    <path d="M512.218 60.4651H582.124V81.9591H512.218V60.4651ZM514.227 120.729H593.574V142.625H488.113V2.00928H590.762V23.9051H514.227V120.729Z" fill="black"/>
    <path d="M322.152 142.625V2.00928H383.621C398.888 2.00928 412.28 4.95551 423.797 10.848C435.314 16.7404 444.286 24.9095 450.714 35.3552C457.143 45.8009 460.357 58.1215 460.357 72.317C460.357 86.3785 457.143 98.6991 450.714 109.279C444.286 119.724 435.314 127.894 423.797 133.786C412.28 139.678 398.888 142.625 383.621 142.625H322.152ZM348.266 120.528H382.416C392.995 120.528 402.102 118.519 409.735 114.502C417.502 110.484 423.462 104.859 427.613 97.6277C431.899 90.3961 434.041 81.9591 434.041 72.317C434.041 62.5408 431.899 54.1039 427.613 47.0062C423.462 39.7745 417.502 34.1499 409.735 30.1324C402.102 26.1148 392.995 24.106 382.416 24.106H348.266V120.528Z" fill="black"/>
    <path d="M218.941 144.633C207.96 144.633 197.849 142.825 188.608 139.209C179.368 135.593 171.333 130.571 164.503 124.143C157.673 117.581 152.383 109.948 148.633 101.243C144.884 92.4044 143.009 82.7622 143.009 72.3165C143.009 61.8708 144.884 52.2955 148.633 43.5908C152.383 34.7521 157.673 27.1187 164.503 20.6905C171.333 14.1285 179.368 9.03956 188.608 5.42374C197.849 1.80791 207.893 0 218.74 0C229.722 0 239.766 1.80791 248.872 5.42374C258.112 9.03956 266.148 14.1285 272.978 20.6905C279.807 27.1187 285.097 34.7521 288.847 43.5908C292.597 52.2955 294.472 61.8708 294.472 72.3165C294.472 82.7622 292.597 92.4044 288.847 101.243C285.097 110.082 279.807 117.715 272.978 124.143C266.148 130.571 258.112 135.593 248.872 139.209C239.766 142.825 229.789 144.633 218.941 144.633ZM218.74 121.733C225.838 121.733 232.4 120.527 238.426 118.117C244.453 115.706 249.676 112.291 254.095 107.872C258.514 103.319 261.929 98.0959 264.34 92.2035C266.884 86.1771 268.156 79.5481 268.156 72.3165C268.156 65.0848 266.884 58.5228 264.34 52.6303C261.929 46.6039 258.514 41.3811 254.095 36.9618C249.676 32.4085 244.453 28.9266 238.426 26.516C232.4 24.1055 225.838 22.9002 218.74 22.9002C211.642 22.9002 205.08 24.1055 199.054 26.516C193.162 28.9266 187.939 32.4085 183.385 36.9618C178.966 41.3811 175.484 46.6039 172.94 52.6303C170.529 58.5228 169.324 65.0848 169.324 72.3165C169.324 79.4142 170.529 85.9762 172.94 92.0026C175.484 98.029 178.966 103.319 183.385 107.872C187.805 112.291 193.028 115.706 199.054 118.117C205.08 120.527 211.642 121.733 218.74 121.733Z" fill="black"/>
    <path d="M75.1288 144.633C64.4152 144.633 54.4382 142.892 45.1978 139.41C36.0913 135.794 28.1231 130.772 21.2932 124.344C14.5972 117.782 9.37436 110.082 5.62461 101.243C1.87487 92.4044 0 82.7622 0 72.3165C0 61.8708 1.87487 52.2286 5.62461 43.3899C9.37436 34.5512 14.6642 26.9178 21.4941 20.4897C28.3239 13.9276 36.2921 8.90564 45.3987 5.42374C54.5052 1.80791 64.4822 0 75.3296 0C86.8467 0 97.3594 2.00879 106.868 6.02638C116.376 9.91004 124.411 15.7355 130.973 23.5028L114.099 39.3723C109.01 33.8816 103.319 29.7971 97.0246 27.1187C90.7304 24.3064 83.9005 22.9002 76.5349 22.9002C69.1694 22.9002 62.4064 24.1055 56.2461 26.516C50.2198 28.9266 44.9299 32.3415 40.3767 36.7609C35.9573 41.1802 32.4754 46.4031 29.931 52.4294C27.5204 58.4558 26.3152 65.0848 26.3152 72.3165C26.3152 79.5481 27.5204 86.1771 29.931 92.2035C32.4754 98.2299 35.9573 103.453 40.3767 107.872C44.9299 112.291 50.2198 115.706 56.2461 118.117C62.4064 120.527 69.1694 121.733 76.5349 121.733C83.9005 121.733 90.7304 120.394 97.0246 117.715C103.319 114.903 109.01 110.684 114.099 105.06L130.973 121.13C124.411 128.763 116.376 134.589 106.868 138.607C97.3594 142.624 86.7797 144.633 75.1288 144.633Z" fill="black"/>
</svg>
