<svg width="158" height="22" viewBox="0 0 158 22" fill="none" xmlns="http://www.w3.org/2000/svg">
<path d="M138.02 21.0623L147.277 0.937988H148.743L158 21.0623H156.419L147.679 1.85796H148.312L139.601 21.0623H138.02ZM141.412 15.3987L141.901 14.1625H153.946L154.435 15.3987H141.412Z" fill="black"/>
<path d="M123.445 10.1952H134.341V11.4889H123.445V10.1952ZM123.618 19.7398H136.037V21.0623H122.151V0.937988H135.606V2.26044H123.618V19.7398Z" fill="black"/>
<path d="M98.3999 21.0623V0.937988H106.363C108.491 0.937988 110.359 1.36922 111.969 2.23169C113.579 3.09416 114.825 4.28246 115.707 5.79657C116.608 7.31068 117.058 9.04521 117.058 11.0001C117.058 12.9551 116.608 14.6896 115.707 16.2037C114.825 17.7178 113.579 18.9061 111.969 19.7686C110.359 20.6311 108.491 21.0623 106.363 21.0623H98.3999ZM99.8661 19.7398H106.248C108.146 19.7398 109.794 19.3661 111.193 18.6186C112.592 17.8711 113.675 16.8458 114.442 15.5425C115.208 14.22 115.592 12.7059 115.592 11.0001C115.592 9.29436 115.208 7.78983 114.442 6.48654C113.675 5.16409 112.592 4.12913 111.193 3.38165C109.794 2.63418 108.146 2.26044 106.248 2.26044H99.8661V19.7398Z" fill="black"/>
<path d="M89.9214 21.0623V0.937988H91.3876V21.0623H89.9214Z" fill="black"/>
<path d="M73.3063 9.30395H83.311V12.3801H73.3063V9.30395ZM73.5938 17.9286H84.9497V21.0623H69.8564V0.937988H84.5472V4.07163H73.5938V17.9286Z" fill="black"/>
<path d="M46.105 21.0623V0.937988H54.9022C57.0871 0.937988 59.0037 1.35964 60.652 2.20294C62.3002 3.04625 63.5844 4.21537 64.5043 5.71032C65.4243 7.20527 65.8843 8.96854 65.8843 11.0001C65.8843 13.0126 65.4243 14.7758 64.5043 16.29C63.5844 17.7849 62.3002 18.954 60.652 19.7973C59.0037 20.6406 57.0871 21.0623 54.9022 21.0623H46.105ZM49.8423 17.8999H54.7297C56.2438 17.8999 57.5471 17.6124 58.6395 17.0374C59.7512 16.4624 60.6041 15.6575 61.1982 14.6225C61.8115 13.5875 62.1182 12.3801 62.1182 11.0001C62.1182 9.60102 61.8115 8.39356 61.1982 7.37777C60.6041 6.3428 59.7512 5.53783 58.6395 4.96285C57.5471 4.38787 56.2438 4.10038 54.7297 4.10038H49.8423V17.8999Z" fill="black"/>
<path d="M31.3339 21.3497C29.7623 21.3497 28.3153 21.0909 26.9928 20.5734C25.6704 20.056 24.5204 19.3372 23.5429 18.4173C22.5655 17.4781 21.8084 16.3857 21.2718 15.1399C20.7351 13.8749 20.4668 12.495 20.4668 11C20.4668 9.50508 20.7351 8.13471 21.2718 6.88892C21.8084 5.62397 22.5655 4.53151 23.5429 3.61154C24.5204 2.6724 25.6704 1.9441 26.9928 1.42661C28.3153 0.909132 29.7527 0.650391 31.3052 0.650391C32.8768 0.650391 34.3142 0.909132 35.6175 1.42661C36.94 1.9441 38.0899 2.6724 39.0674 3.61154C40.0449 4.53151 40.8019 5.62397 41.3386 6.88892C41.8752 8.13471 42.1435 9.50508 42.1435 11C42.1435 12.495 41.8752 13.8749 41.3386 15.1399C40.8019 16.4048 40.0449 17.4973 39.0674 18.4173C38.0899 19.3372 36.94 20.056 35.6175 20.5734C34.3142 21.0909 32.8864 21.3497 31.3339 21.3497ZM31.3052 18.0723C32.321 18.0723 33.2601 17.8998 34.1226 17.5548C34.985 17.2098 35.7325 16.7211 36.365 16.0886C36.9975 15.437 37.4862 14.6895 37.8312 13.8462C38.1953 12.9837 38.3774 12.035 38.3774 11C38.3774 9.96507 38.1953 9.02593 37.8312 8.18263C37.4862 7.32016 36.9975 6.57268 36.365 5.94021C35.7325 5.28856 34.985 4.79025 34.1226 4.44526C33.2601 4.10027 32.321 3.92778 31.3052 3.92778C30.2894 3.92778 29.3502 4.10027 28.4878 4.44526C27.6445 4.79025 26.897 5.28856 26.2453 5.94021C25.6129 6.57268 25.1146 7.32016 24.7504 8.18263C24.4054 9.02593 24.2329 9.96507 24.2329 11C24.2329 12.0158 24.4054 12.955 24.7504 13.8174C25.1146 14.6799 25.6129 15.437 26.2453 16.0886C26.8778 16.7211 27.6253 17.2098 28.4878 17.5548C29.3502 17.8998 30.2894 18.0723 31.3052 18.0723Z" fill="black"/>
<path d="M10.7521 21.3497C9.21885 21.3497 7.79098 21.1005 6.46852 20.6022C5.16524 20.0847 4.02486 19.366 3.04739 18.446C2.08909 17.5069 1.34162 16.4048 0.804972 15.1399C0.268324 13.8749 0 12.495 0 11C0 9.50508 0.268324 8.12513 0.804972 6.86017C1.34162 5.59522 2.09868 4.50276 3.07614 3.58279C4.05361 2.64366 5.19399 1.92493 6.49727 1.42661C7.80056 0.909132 9.22843 0.650391 10.7809 0.650391C12.4292 0.650391 13.9337 0.937881 15.2945 1.51286C16.6553 2.06868 17.8052 2.9024 18.7443 4.01402L16.3294 6.28519C15.6011 5.49939 14.7866 4.91483 13.8858 4.53151C12.985 4.12902 12.0075 3.92778 10.9534 3.92778C9.89924 3.92778 8.93136 4.10027 8.04972 4.44526C7.18725 4.79025 6.43019 5.27898 5.77855 5.91146C5.14607 6.54394 4.64775 7.29141 4.2836 8.15388C3.93861 9.01635 3.76612 9.96507 3.76612 11C3.76612 12.035 3.93861 12.9837 4.2836 13.8462C4.64775 14.7087 5.14607 15.4561 5.77855 16.0886C6.43019 16.7211 7.18725 17.2098 8.04972 17.5548C8.93136 17.8998 9.89924 18.0723 10.9534 18.0723C12.0075 18.0723 12.985 17.8806 13.8858 17.4973C14.7866 17.0948 15.6011 16.4911 16.3294 15.6861L18.7443 17.986C17.8052 19.0785 16.6553 19.9122 15.2945 20.4872C13.9337 21.0622 12.4196 21.3497 10.7521 21.3497Z" fill="black"/>
</svg>
