<svg width="30" height="31" viewBox="0 0 30 31" fill="none" xmlns="http://www.w3.org/2000/svg">
<g clip-path="url(#clip0_453_2042)">
<path fill-rule="evenodd" clip-rule="evenodd" d="M8.73795 10.6704H21.2597C21.4902 10.6704 21.6771 10.8573 21.6771 11.0878C21.6771 11.2021 21.6302 11.3115 21.5473 11.3903L15.5651 17.0791C15.2424 17.3859 14.7358 17.3855 14.4136 17.0782L8.44986 11.3898C8.28306 11.2307 8.27681 10.9665 8.43592 10.7997C8.51468 10.7171 8.62383 10.6704 8.73795 10.6704Z" stroke="#282929" stroke-width="1.3913"/>
<path d="M8.39136 14.8442V18.7399C8.39136 19.662 9.13885 20.4095 10.0609 20.4095H19.9392C20.8613 20.4095 21.6087 19.662 21.6087 18.7399V14.8442" stroke="#282929" stroke-width="1.3913"/>
</g>
<defs>
<clipPath id="clip0_453_2042">
<rect width="16" height="11.1304" fill="white" transform="translate(7 9.97461)"/>
</clipPath>
</defs>
</svg>
