<svg width="16" height="20" viewBox="0 0 16 20" fill="none" xmlns="http://www.w3.org/2000/svg">
<g clip-path="url(#clip0_453_1998)">
<path d="M3.23804 5.73456V13.3536C3.23804 14.6166 3.73973 15.8277 4.63277 16.7208C5.5258 17.6138 6.73701 18.1155 7.99994 18.1155C9.26288 18.1155 10.4741 17.6138 11.3671 16.7208C12.2601 15.8277 12.7618 14.6166 12.7618 13.3536V4.30599C12.7618 3.42194 12.4107 2.57409 11.7855 1.94897C11.1604 1.32385 10.3126 0.972656 9.42851 0.972656C8.54446 0.972656 7.69661 1.32385 7.07149 1.94897C6.44637 2.57409 6.09518 3.42194 6.09518 4.30599V12.4012C6.09518 12.9064 6.29586 13.3909 6.65308 13.7481C7.01028 14.1053 7.49477 14.306 7.99994 14.306C8.50511 14.306 8.9896 14.1053 9.34681 13.7481C9.70403 13.3909 9.9047 12.9064 9.9047 12.4012V5.73456" stroke="#282929" stroke-width="1.90476" stroke-linecap="round" stroke-linejoin="round"/>
</g>
<defs>
<clipPath id="clip0_453_1998">
<rect width="11.4286" height="20" fill="white" transform="translate(2.28564)"/>
</clipPath>
</defs>
</svg>
