<svg width="20" height="21" viewBox="0 0 20 21" fill="none" xmlns="http://www.w3.org/2000/svg">
    <path d="M10 0.4375C4.48 0.4375 0 4.9175 0 10.4375C0 15.9575 4.48 20.4375 10 20.4375C15.52 20.4375 20 15.9575 20 10.4375C20 4.9175 15.52 0.4375 10 0.4375ZM5.35 16.9375C6.66 15.9975 8.26 15.4375 10 15.4375C11.74 15.4375 13.34 15.9975 14.65 16.9375C13.34 17.8775 11.74 18.4375 10 18.4375C8.26 18.4375 6.66 17.8775 5.35 16.9375ZM16.14 15.5575C14.45 14.2375 12.32 13.4375 10 13.4375C7.68 13.4375 5.55 14.2375 3.86 15.5575C2.7 14.1675 2 12.3875 2 10.4375C2 6.0175 5.58 2.4375 10 2.4375C14.42 2.4375 18 6.0175 18 10.4375C18 12.3875 17.3 14.1675 16.14 15.5575Z" fill="black"/>
    <path d="M10 4.4375C8.07 4.4375 6.5 6.0075 6.5 7.9375C6.5 9.8675 8.07 11.4375 10 11.4375C11.93 11.4375 13.5 9.8675 13.5 7.9375C13.5 6.0075 11.93 4.4375 10 4.4375ZM10 9.4375C9.17 9.4375 8.5 8.7675 8.5 7.9375C8.5 7.1075 9.17 6.4375 10 6.4375C10.83 6.4375 11.5 7.1075 11.5 7.9375C11.5 8.7675 10.83 9.4375 10 9.4375Z" fill="black"/>
</svg>
